<svg width="245" height="94" viewBox="0 0 245 94" fill="none" xmlns="http://www.w3.org/2000/svg">
<path d="M162.85 62.2005C166.471 62.2005 169.482 63.4609 171.882 65.9818C174.283 68.5039 175.484 71.6116 175.484 75.3049C175.484 78.9983 174.283 82.0763 171.882 84.61C169.481 87.1438 166.471 88.4107 162.85 88.4107H152.479V62.1992H162.85V62.2005ZM162.85 84.2933C165.339 84.2933 167.37 83.4453 168.941 81.7466C170.512 80.0493 171.298 77.902 171.298 75.3062C171.298 72.7104 170.512 70.5322 168.941 68.8465C167.37 67.162 165.34 66.3192 162.85 66.3192H156.816V84.292H162.85V84.2933Z" fill="#525252"/>
<path d="M183.253 72.8381C184.283 70.5163 186.22 69.3555 189.061 69.3555V73.7365C187.502 73.637 186.145 74.0054 184.988 74.8405C183.831 75.6769 183.253 77.0563 183.253 78.9786V88.4142H179.18V69.6916H183.253V72.8368V72.8381Z" fill="#525252"/>
<path d="M193.889 88.0382C193.335 88.5877 192.668 88.8617 191.89 88.8617C191.112 88.8617 190.443 88.5864 189.891 88.0382C189.338 87.4901 189.062 86.8283 189.062 86.0539C189.062 85.2796 189.332 84.619 189.872 84.0696C190.412 83.5202 191.085 83.2461 191.89 83.2461C192.695 83.2461 193.335 83.5214 193.889 84.0696C194.442 84.619 194.719 85.2809 194.719 86.0539C194.719 86.827 194.442 87.4901 193.889 88.0382Z" fill="#525252"/>
<path d="M214.782 66.3231H203.656V73.6619H214.404V77.7806H203.656V88.4146H199.319V62.2031H214.782V66.3218V66.3231Z" fill="#525252"/>
<path d="M222.455 66.1153C221.939 66.6272 221.329 66.8832 220.626 66.8832C219.922 66.8832 219.312 66.6272 218.796 66.1153C218.281 65.6034 218.023 64.9984 218.023 64.299C218.023 63.5996 218.274 62.9946 218.777 62.4827C219.28 61.9721 219.895 61.7148 220.624 61.7148C221.354 61.7148 221.969 61.9708 222.473 62.4827C222.976 62.9946 223.227 63.5996 223.227 64.299C223.227 64.9984 222.968 65.6034 222.454 66.1153H222.455ZM218.59 88.4137V69.691H222.663V88.4137H218.59Z" fill="#525252"/>
<path d="M237.898 73.585H233.222V82.572C233.222 83.3464 233.398 83.901 233.749 84.2384C234.101 84.5758 234.623 84.7619 235.315 84.7994C236.006 84.8369 236.867 84.8304 237.898 84.7813V88.4139C234.78 88.7888 232.542 88.5199 231.184 87.6085C229.827 86.6972 229.148 85.0192 229.148 82.572V73.585H225.679V69.6912H229.148V65.6476L233.222 64.4492V69.6912H237.898V73.585Z" fill="#525252"/>
<path d="M134.102 77.4545C134.798 77.8175 135.343 78.3167 135.736 78.9521C136.129 79.5874 136.326 80.3211 136.326 81.1531C136.326 82.4541 135.865 83.5357 134.942 84.398C134.019 85.2603 132.892 85.6914 131.561 85.6914H124.753V69.8075H131.062C132.363 69.8075 133.459 70.231 134.352 71.0782C135.26 71.9102 135.713 72.954 135.713 74.2096C135.713 75.5862 135.176 76.6678 134.102 77.4545ZM131.062 72.2581H127.363V76.4333H131.062C131.636 76.4333 132.121 76.2367 132.514 75.8434C132.907 75.4349 133.104 74.9357 133.104 74.3457C133.104 73.7558 132.907 73.2641 132.514 72.8708C132.121 72.4624 131.636 72.2581 131.062 72.2581ZM131.561 83.2407C132.166 83.2407 132.673 83.029 133.081 82.6054C133.505 82.1667 133.717 81.6372 133.717 81.017C133.717 80.3968 133.505 79.8749 133.081 79.4513C132.673 79.0126 132.166 78.7932 131.561 78.7932H127.363V83.2407H131.561ZM145.737 74.3457H148.346L143.989 86.0545C142.9 88.9892 141.055 90.3809 138.453 90.2297V87.9378C139.224 87.9832 139.845 87.8168 140.313 87.4386C140.782 87.0756 141.168 86.5007 141.471 85.7141L141.584 85.4872L136.774 74.3457H139.451L142.832 82.5827L145.737 74.3457Z" fill="#525252"/>
<g clip-path="url(#clip0_5849_8594)">
<path d="M36.3298 12.481H58.6705V1.22656H0V12.481H22.3407V52.7926H36.5386V12.481H36.3298Z" fill="#1D1D1F"/>
<path d="M150.748 27.0108C150.748 22.509 149.913 18.6211 148.242 15.347C146.572 11.8684 144.275 9.20822 141.143 6.95732C138.011 4.70642 134.253 3.06941 129.869 1.84164C125.693 0.613881 120.682 0 115.253 0C109.825 0 104.814 0.613881 100.429 1.84164C96.0444 3.06941 92.2861 4.70642 89.1542 6.95732C86.0224 9.20822 83.7256 12.073 82.0553 15.347C80.385 18.8257 79.5498 22.7136 79.5498 27.0108C79.5498 31.5126 80.385 35.4005 82.0553 38.6745C83.7256 42.1532 86.0224 44.8133 89.1542 47.0642C92.2861 49.3151 96.0444 50.9521 100.429 52.1799C104.814 53.4077 109.825 54.0215 115.253 54.0215C120.682 54.0215 125.693 53.4077 130.077 52.1799C134.462 50.9521 138.22 49.3151 141.352 47.0642C144.484 44.8133 146.781 41.9485 148.451 38.6745C149.913 35.4005 150.748 31.5126 150.748 27.0108ZM136.55 27.0108C136.55 28.8524 136.341 30.8987 135.715 32.7403C135.088 34.582 134.044 36.4236 132.374 37.856C130.704 39.2884 128.616 40.5162 125.902 41.5393C123.187 42.5624 119.638 42.9717 115.462 42.9717C112.539 42.9717 110.033 42.7671 107.945 42.3578C105.858 41.9485 103.978 41.3347 102.308 40.5162C100.638 39.6976 99.385 38.8791 98.3411 37.856C97.2971 36.8329 96.4619 35.8097 95.8356 34.582C95.2092 33.3542 94.7916 32.1264 94.5828 30.8987C94.374 29.6709 94.1652 28.2385 94.1652 27.0108C94.1652 25.783 94.374 24.5552 94.5828 23.1229C94.7916 21.8951 95.2092 20.6673 95.8356 19.4396C96.2532 18.4164 97.0883 17.1887 98.1323 16.1655C99.1762 15.1424 100.429 14.3239 102.099 13.5054C103.77 12.6869 105.649 12.073 107.737 11.6637C109.825 11.2545 112.33 11.0499 115.253 11.0499C119.429 11.0499 122.978 11.4591 125.693 12.4823C128.407 13.5054 130.704 14.7331 132.165 16.1655C133.836 17.5979 134.88 19.4396 135.506 21.2812C136.132 23.1229 136.55 25.1691 136.55 27.0108Z" fill="#1D1D1F"/>
<path d="M238.232 18.8245C238.232 16.1643 237.814 13.9134 237.188 11.6625C236.353 9.61627 235.1 7.57 233.43 6.13761C231.759 4.5006 229.463 3.27283 226.748 2.45433C224.034 1.63582 220.693 1.22656 216.935 1.22656H179.353V52.588H193.55V36.4224H217.144C221.111 36.4224 224.243 36.0132 226.957 35.1947C229.671 34.3762 231.759 33.1484 233.638 31.5114C235.309 29.8744 236.561 28.0327 237.397 25.9864C237.814 23.7355 238.232 21.4846 238.232 18.8245ZM224.034 19.0291C224.034 20.2569 223.825 21.28 223.616 22.0985C223.199 22.917 222.781 23.5309 221.946 24.1448C221.111 24.7587 220.067 24.9633 218.814 25.1679C217.561 25.3726 215.891 25.5772 214.221 25.5772H193.759V12.2764H214.221C216.1 12.2764 217.561 12.4811 218.814 12.6857C220.067 12.8903 221.111 13.2996 221.946 13.9134C222.781 14.5273 223.199 15.1412 223.616 15.9597C223.825 16.7782 224.034 17.8014 224.034 19.0291Z" fill="#1D1D1F"/>
</g>
<defs>
<clipPath id="clip0_5849_8594">
<rect width="238.231" height="82.4647" fill="white"/>
</clipPath>
</defs>
</svg>
