<svg width="118" height="38" viewBox="0 0 118 38" fill="none" xmlns="http://www.w3.org/2000/svg">
<g clip-path="url(#clip0_5147_3023)">
<path d="M14.3274 1.16406C19.3295 1.16406 23.4886 2.88192 26.8048 6.31763C30.121 9.75511 31.78 13.9907 31.78 19.0245C31.78 24.0583 30.121 28.2533 26.8048 31.7067C23.4868 35.16 19.3295 36.8867 14.3274 36.8867H0V1.16406H14.3274ZM14.3274 31.2733C17.7651 31.2733 20.5706 30.1174 22.7421 27.8023C24.9118 25.4889 25.9976 22.5624 25.9976 19.0245C25.9976 15.4866 24.9118 12.5178 22.7421 10.2203C20.5706 7.92449 17.7669 6.77573 14.3274 6.77573H5.99134V31.2715H14.3274V31.2733Z" fill="#231F20"/>
<path d="M42.5127 15.6587C43.9359 12.4943 46.6111 10.9121 50.5362 10.9121V16.8832C48.3826 16.7475 46.5075 17.2497 44.9092 18.3879C43.3109 19.5278 42.5127 21.4078 42.5127 24.0277V36.8879H36.8856V11.372H42.5127V15.6587Z" fill="#231F20"/>
<path d="M57.2044 36.3771C56.4401 37.1259 55.5186 37.4994 54.4436 37.4994C53.3685 37.4994 52.4453 37.1241 51.6827 36.3771C50.9184 35.63 50.5363 34.7279 50.5363 33.6726C50.5363 32.6172 50.9095 31.7168 51.656 30.968C52.4024 30.2192 53.331 29.8457 54.4436 29.8457C55.5561 29.8457 56.4401 30.221 57.2044 30.968C57.9687 31.7168 58.3509 32.6189 58.3509 33.6726C58.3509 34.7262 57.9687 35.63 57.2044 36.3771Z" fill="#231F20"/>
<path d="M86.0664 6.77749H70.6979V16.7798H85.545V22.3933H70.6979V36.8867H64.7065V1.16406H86.0664V6.77749Z" fill="#231F20"/>
<path d="M96.6669 6.49557C95.9543 7.19328 95.1114 7.54214 94.14 7.54214C93.1685 7.54214 92.3256 7.19328 91.6131 6.49557C90.9005 5.79786 90.5452 4.97328 90.5452 4.02009C90.5452 3.0669 90.8916 2.24233 91.5863 1.54462C92.281 0.848666 93.131 0.498047 94.1382 0.498047C95.1454 0.498047 95.9954 0.846904 96.6919 1.54462C97.3865 2.24233 97.733 3.0669 97.733 4.02009C97.733 4.97328 97.3758 5.79786 96.6651 6.49557H96.6669ZM91.3273 36.8867V11.3708H96.9544V36.8884H91.3273V36.8867Z" fill="#231F20"/>
<path d="M118 16.6779H111.541V28.9267C111.541 29.9821 111.784 30.7379 112.269 31.1978C112.755 31.6577 113.477 31.9114 114.432 31.9625C115.387 32.0136 116.577 32.0048 118 31.9378V36.8888C113.693 37.3997 110.601 37.0332 108.726 35.7911C106.851 34.5489 105.914 32.262 105.914 28.9267V16.6779H101.121V11.3711H105.914V5.85985L111.541 4.22656V11.3711H118V16.6779Z" fill="#231F20"/>
</g>
<defs>
<clipPath id="clip0_5147_3023">
<rect width="118" height="37" fill="white" transform="translate(0 0.5)"/>
</clipPath>
</defs>
</svg>
