<svg xmlns="http://www.w3.org/2000/svg" viewBox="0 0 120 200" fill="none" aria-hidden="true">
  <defs>
    <g id="s">
      <circle cx="60" cy="22" r="14"/>
      <path d="M54 35h12v7h-12z"/>
      <path d="M34 56c0-6 8-11 14-11h24c6 0 14 5 14 11 0 6-2 12-3 16 5 4 11 14 11 28 0 16-7 26-13 30 1 4 1 13 0 24-1 10-3 22-4 26-1 4-9 7-13 7-3 0-6-3-6-7 0-11 0-22-1-28-1 6-1 17-1 28 0 4-3 7-6 7-4 0-12-3-13-7-1-4-3-16-4-26-1-11-1-20 0-24-6-4-13-14-13-30 0-14 6-24 11-28-1-4-3-10-3-16Z"/>
    </g>
  </defs>
  <use href="#s" x="2" y="2" fill="#E50914" opacity="0.75"/>
  <use href="#s" fill="#A50015"/>
</svg>
