<svg xmlns="http://www.w3.org/2000/svg" viewBox="0 0 120 200" fill="none" aria-hidden="true">
  <defs>
    <g id="s">
      <circle cx="60" cy="22" r="13"/>
      <path d="M55 34h10v7h-10z"/>
      <path d="M40 55c0-5 6-10 11-10h18c5 0 11 5 11 10 0 5-1 9-2 13 3 4 7 12 7 23 0 13-4 23-9 27 1 3 1 12 0 22-1 9-2 20-3 24-1 3-7 6-10 6-3 0-5-3-5-6 0-10 0-20-1-26-1 6-1 16-1 26 0 3-2 6-5 6-3 0-9-3-10-6-1-4-2-15-3-24-1-10-1-19 0-22-5-4-9-14-9-27 0-11 4-19 7-23-1-4-2-8-2-13Z"/>
    </g>
  </defs>
  <use href="#s" x="2" y="2" fill="#E50914" opacity="0.75"/>
  <use href="#s" fill="#A50015"/>
</svg>
