<svg xmlns="http://www.w3.org/2000/svg" viewBox="0 0 120 200" fill="none" aria-hidden="true">
  <defs>
    <g id="s">
      <circle cx="60" cy="22" r="16"/>
      <path d="M52 37h16v6h-16z"/>
      <path d="M30 56c0-7 8-12 14-12h32c6 0 14 5 14 12 0 6-2 12-3 16 4 4 9 12 9 24 0 18-6 32-12 36 1 4 2 14 1 26-1 11-3 26-4 30-1 5-9 8-13 8-3 0-7-3-7-8 0-12 0-26-1-32-1 6-1 20-1 32 0 5-4 8-7 8-4 0-12-3-13-8-1-4-3-19-4-30-1-12 0-22 1-26-6-4-12-18-12-36 0-12 5-20 9-24-1-4-3-10-3-16Z"/>
    </g>
  </defs>
  <use href="#s" x="2" y="2" fill="#E50914" opacity="0.75"/>
  <use href="#s" fill="#A50015"/>
</svg>
