<svg xmlns="http://www.w3.org/2000/svg" viewBox="0 0 120 200" fill="none" aria-hidden="true">
  <defs>
    <g id="s">
      <circle cx="60" cy="22" r="12"/>
      <path d="M55 33h10v7h-10z"/>
      <path d="M44 54c0-5 6-9 10-9h12c4 0 10 4 10 9 0 4-1 7-2 10 2 3 5 9 5 19 0 12-3 22-7 26 1 3 1 11 1 21-1 9-2 19-3 23-1 3-5 6-8 6-3 0-5-3-5-6 0-10 0-20-1-26-1 6-1 16-1 26 0 3-2 6-5 6-3 0-7-3-8-6-1-4-2-14-3-23 0-10 0-18 1-21-4-4-7-14-7-26 0-10 3-16 5-19-1-3-2-6-2-10Z"/>
    </g>
  </defs>
  <use href="#s" x="2" y="2" fill="#E50914" opacity="0.75"/>
  <use href="#s" fill="#A50015"/>
</svg>
